<svg width="68" height="67" viewBox="0 0 68 67" fill="none" xmlns="http://www.w3.org/2000/svg">
<path opacity="0.4" d="M33.8235 66.5294C52.195 66.5294 67.0882 51.6364 67.0882 33.2647C67.0882 14.8931 52.195 0 33.8235 0C15.4519 0 0.558838 14.8931 0.558838 33.2647C0.558838 51.6364 15.4519 66.5294 33.8235 66.5294Z" fill="#8D7B68"/>
<path d="M33.8234 16.3993C26.9376 16.3993 21.3491 21.9878 21.3491 28.8734C21.3491 35.6262 26.6382 41.1148 33.6571 41.3144H33.9564H34.1893H34.2558C40.9753 41.0816 46.2644 35.6262 46.2976 28.8734C46.2976 21.9878 40.7092 16.3993 33.8234 16.3993Z" fill="#8D7B68"/>
<path d="M56.3794 57.7142C50.4583 63.1696 42.5413 66.5294 33.8259 66.5294C25.1106 66.5294 17.1936 63.1696 11.2725 57.7142C12.0708 54.6871 14.233 51.9262 17.3932 49.7972C26.4744 43.743 41.244 43.743 50.2587 49.7972C53.4521 51.9262 55.5811 54.6871 56.3794 57.7142Z" fill="#8D7B68"/>
</svg>
