<svg width="50" height="65" viewBox="0 0 50 65" fill="none" xmlns="http://www.w3.org/2000/svg">
<path d="M48.554 40.3503L45.3234 34.9875C44.6449 33.7922 44.0311 31.5308 44.0311 30.2062V22.0328C44.0311 14.4408 39.5729 7.88269 33.144 4.81361C31.4641 1.84145 28.3627 0 24.809 0C21.2876 0 18.1218 1.90606 16.4418 4.91053C10.1422 8.04422 5.78084 14.5377 5.78084 22.0328V30.2062C5.78084 31.5308 5.16702 33.7922 4.4886 34.9552L1.22568 40.3503C-0.0665642 42.5148 -0.357318 44.9055 0.450334 47.1023C1.22568 49.2668 3.06713 50.9467 5.45778 51.7544C11.7252 53.8866 18.3156 54.9204 24.9059 54.9204C31.4964 54.9204 38.0868 53.8866 44.3542 51.7867C46.6156 51.0436 48.3601 49.3314 49.2001 47.1023C50.0401 44.8732 49.8139 42.4179 48.554 40.3503Z" fill="#8D7B68"/>
<path d="M33.9832 58.1833C32.6263 61.9308 29.0404 64.6122 24.8406 64.6122C22.2884 64.6122 19.7685 63.5784 17.9917 61.737C16.9579 60.7678 16.1825 59.4756 15.7302 58.151C16.1502 58.2156 16.5702 58.2479 17.0225 58.3125C17.7655 58.4094 18.5409 58.5064 19.3162 58.571C21.1577 58.7325 23.0314 58.8294 24.9052 58.8294C26.7466 58.8294 28.5881 58.7325 30.3972 58.571C31.0757 58.5064 31.7541 58.4741 32.4002 58.3771C32.9171 58.3125 33.434 58.2479 33.9832 58.1833Z" fill="#8D7B68"/>
</svg>
