<svg width="55" height="55" viewBox="0 0 55 55" fill="none" xmlns="http://www.w3.org/2000/svg">
<path d="M18.3491 45.4179C21.7071 45.5303 25.0535 44.9683 28.1907 43.7654C31.3278 42.5624 34.1919 40.7427 36.6138 38.414C39.0358 36.0852 40.9663 33.2946 42.2913 30.207C43.6164 27.1195 44.309 23.7976 44.3284 20.4378C45.8673 18.5335 47.01 16.3407 47.6894 13.9884C47.7401 13.8026 47.736 13.606 47.6776 13.4224C47.6192 13.2389 47.5089 13.0761 47.3602 12.9537C47.2114 12.8313 47.0304 12.7546 46.839 12.7327C46.6476 12.7107 46.454 12.7446 46.2814 12.8302C45.4763 13.2178 44.5699 13.343 43.6899 13.1881C42.8099 13.0333 42.0007 12.6063 41.3762 11.9673C40.579 11.0943 39.6147 10.3902 38.5404 9.89673C37.4661 9.40325 36.3036 9.13043 35.122 9.09443C33.9403 9.05843 32.7634 9.25998 31.6611 9.68715C30.5587 10.1143 29.5533 10.7584 28.7045 11.5812C27.5422 12.7068 26.6909 14.114 26.2333 15.6659C25.7757 17.2178 25.7273 18.8617 26.0929 20.4378C18.4853 20.892 13.2622 17.2812 9.08374 12.3306C8.95821 12.1885 8.794 12.086 8.61117 12.0356C8.42834 11.9852 8.23479 11.9892 8.05416 12.047C7.87354 12.1048 7.71365 12.2139 7.59403 12.3611C7.47441 12.5082 7.40023 12.687 7.38055 12.8757C6.58453 17.2913 7.15875 21.8448 9.0261 25.9245C10.8935 30.0043 13.9645 33.4149 17.8268 35.6984C15.2371 38.6684 11.6004 40.5233 7.67577 40.8761C7.46551 40.9109 7.27142 41.0107 7.12065 41.1613C6.96988 41.312 6.86999 41.506 6.83495 41.7162C6.79991 41.9265 6.83148 42.1424 6.92524 42.3338C7.019 42.5252 7.17026 42.6825 7.35784 42.7836C10.7722 44.4899 14.5322 45.3911 18.3491 45.4179Z" fill="#F1DEC9"/>
</svg>
