<svg width="35" height="44" viewBox="0 0 35 44" fill="none" xmlns="http://www.w3.org/2000/svg">
<g id="&#240;&#159;&#166;&#134; icon &#34;drop&#34;">
<g id="Group">
<path id="Vector" d="M27.4139 12.2661L5.20636 34.4737C4.16943 35.5106 2.39801 35.273 1.77153 33.9552C0.648196 31.6438 0.00011543 29.0298 0.00011543 26.2863C-0.0430899 14.3616 12.0544 4.16515 16.1589 1.03276C16.9582 0.427883 18.0384 0.427883 18.8161 1.03276C20.6955 2.45853 24.2167 5.4181 27.5219 9.30658C28.2564 10.1707 28.2132 11.4669 27.4139 12.2661Z" fill="#FFFAF5"/>
<path id="Vector_2" d="M34.9997 26.3087C34.9997 35.9435 27.1579 43.7853 17.5015 43.7853C13.6346 43.7853 10.0269 42.5324 7.11055 40.3721C6.05202 39.5944 5.96561 38.039 6.89452 37.1101L28.6485 15.3561C29.6638 14.3408 31.3704 14.5568 32.0617 15.8098C33.8331 19.0718 35.0213 22.6147 34.9997 26.3087Z" fill="#FFFAF5"/>
</g>
</g>
</svg>
