<svg width="22" height="22" viewBox="0 0 22 22" fill="none" xmlns="http://www.w3.org/2000/svg">
<path d="M15.5909 19.7128C11.9327 19.7081 8.42563 18.2527 5.83885 15.666C3.25207 13.0792 1.79673 9.57211 1.79199 5.91386C1.79199 4.8207 2.22625 3.77231 2.99923 2.99933C3.77221 2.22635 4.8206 1.79209 5.91376 1.79209C6.14524 1.79033 6.37634 1.81134 6.60371 1.85482C6.82351 1.88734 7.0396 1.94136 7.24885 2.0161C7.39602 2.06774 7.52717 2.1569 7.62932 2.27476C7.73147 2.39263 7.80108 2.53511 7.83127 2.68813L9.05884 8.06435C9.09193 8.21028 9.08795 8.36217 9.04725 8.50617C9.00656 8.65016 8.93045 8.78167 8.82588 8.8887C8.70939 9.01414 8.70043 9.02311 7.59831 9.59657C8.4809 11.5328 10.0294 13.0877 11.962 13.9782C12.5444 12.8671 12.5534 12.8581 12.6788 12.7417C12.7859 12.6371 12.9174 12.561 13.0614 12.5203C13.2054 12.4796 13.3573 12.4756 13.5032 12.5087L18.8794 13.7363C19.0275 13.7706 19.1645 13.8421 19.2773 13.944C19.3902 14.0459 19.4753 14.1748 19.5245 14.3187C19.6002 14.5314 19.6571 14.7502 19.6948 14.9728C19.7309 15.198 19.7488 15.4257 19.7486 15.6538C19.732 16.7423 19.2856 17.78 18.5066 18.5405C17.7277 19.301 16.6795 19.7224 15.5909 19.7128Z" fill="#F1DEC9"/>
</svg>
