<svg width="106" height="62" viewBox="0 0 106 62" fill="none" xmlns="http://www.w3.org/2000/svg">
<path d="M4 32.3406C4 32.3406 15.9557 25.4134 24.9225 36.299C33.8893 47.1847 36.8782 61.0392 45.845 60.5444C54.8117 60.0496 62.8818 36.0516 62.8818 36.0516C62.8818 36.0516 50.0294 58.0704 40.4649 45.2055C31.8628 33.632 33.2915 24.9185 23.7269 23.9289C14.1623 22.9393 4 32.3406 4 32.3406Z" fill="#8D7B68" stroke="#A4907C" stroke-miterlimit="10"/>
<path d="M102.136 32.3406C102.136 32.3406 90.1805 25.4134 81.2137 36.299C72.247 47.1847 69.258 61.0392 60.2913 60.5444C51.3245 60.0496 43.2544 36.0516 43.2544 36.0516C43.2544 36.0516 56.1068 58.0704 65.6713 45.2055C74.2735 33.632 72.8448 24.9185 82.4093 23.9289C91.9739 22.9393 102.136 32.3406 102.136 32.3406Z" fill="#8D7B68" stroke="#A4907C" stroke-miterlimit="10"/>
<path d="M56.4391 11.9279C56.3456 14.6371 56.2406 14.1511 54.5263 16.2813C53.3921 17.7805 53.1854 19.4724 54.1466 21.0092C54.3191 21.2867 54.5257 21.5424 54.7618 21.7706C55.0089 21.946 55.3099 22.0337 55.6149 22.0192C55.9198 22.0047 56.2106 21.8888 56.4391 21.6907C57.7212 20.1102 58.3445 18.114 58.1837 16.1028L56.4391 11.9279Z" fill="#8D7B68"/>
<path d="M47.9566 23.856C47.9907 26.6343 50.3793 26.1395 52.485 28.6939C53.8245 30.3172 53.8595 33.0255 52.7243 34.6895C52.5209 34.9887 52.2789 35.2653 52.0035 35.5139C51.7104 35.7033 51.3542 35.7979 50.9933 35.7822C50.6324 35.7665 50.2881 35.6414 50.0169 35.4274C48.5044 33.7134 47.7686 31.551 47.9566 29.3719L47.9566 23.856Z" fill="#8D7B68"/>
<path d="M48.306 7.34021C47.9879 10.0144 50.7428 8.96922 52.6394 11.4913C53.2517 12.2236 53.5647 13.0957 53.5334 13.9824C53.5021 14.8692 53.1282 15.7251 52.4653 16.4274C52.214 16.7117 51.9218 16.9704 51.595 17.1977C51.0609 17.5706 49.8305 17.4823 49.5124 17.0604C48.9877 16.4021 48.5895 15.6904 48.3235 14.9496C47.4607 12.547 48.1742 9.88964 48.306 7.34021Z" fill="#8D7B68"/>
<path d="M57.8307 17.4331C57.7184 20.2579 56.3724 22.9831 53.9883 25.2124C52.4002 26.7762 52.1108 28.5408 53.4567 30.1438C53.6965 30.4325 53.986 30.6977 54.318 30.933C54.6633 31.1166 55.0842 31.2089 55.5112 31.1947C55.9382 31.1804 56.3458 31.0604 56.6665 30.8545C58.4592 29.2032 59.3314 27.1203 59.1093 25.0213L57.8307 17.4331Z" fill="#8D7B68"/>
<path d="M55.3156 -2.12534e-06C55.5134 1.85927 54.3956 4.5394 53.1805 6.10997C52.779 6.60553 52.5769 7.19388 52.6031 7.79067C52.6293 8.38745 52.8825 8.962 53.3265 9.43197C53.5034 9.62039 53.7077 9.78996 53.9347 9.93683C54.144 10.0539 54.3953 10.1077 54.6467 10.0893C54.8981 10.071 55.1342 9.98148 55.3156 9.83587C56.2241 8.66189 56.545 7.23998 56.2097 5.87268L55.3156 -2.12534e-06Z" fill="#8D7B68"/>
<path d="M47.9565 15.598C47.9911 18.3285 50.2062 18.0035 52.3462 20.5185C53.7075 22.1168 53.9556 23.9204 52.8019 25.5286C52.5981 25.8249 52.3519 26.0977 52.0693 26.3403C51.7721 26.5275 51.4105 26.6215 51.0437 26.607C50.677 26.5924 50.3267 26.4701 50.0504 26.2601C48.5148 24.5719 47.7673 22.4434 47.9566 20.2981L47.9565 15.598Z" fill="#8D7B68"/>
<path d="M50.0012 -2.25919e-06C50.0185 1.63407 50.9361 2.19064 52.0061 3.69578C52.6868 4.65224 52.8108 5.73162 52.234 6.69407C52.1321 6.87139 52.009 7.0346 51.8677 7.17981C51.7191 7.29184 51.5383 7.34811 51.3549 7.33939C51.1715 7.33068 50.9964 7.2575 50.8582 7.13183C50.0904 6.1215 49.7167 4.84769 49.8113 3.56387L50.0012 -2.25919e-06Z" fill="#8D7B68"/>
</svg>
