<svg width="56" height="53" viewBox="0 0 56 53" fill="none" xmlns="http://www.w3.org/2000/svg">
<g id="&#240;&#159;&#166;&#134; icon &#34;danger&#34;">
<path id="Vector" d="M54.1765 37.3336L37.0116 6.43682C34.7051 2.27971 31.5135 0 28 0C24.4866 0 21.2949 2.27971 18.9884 6.43682L1.82355 37.3336C-0.348879 41.2761 -0.590259 45.0578 1.15305 48.0348C2.89635 51.0118 6.32932 52.6478 10.8351 52.6478H45.1649C49.6707 52.6478 53.1037 51.0118 54.847 48.0348C56.5903 45.0578 56.3489 41.2493 54.1765 37.3336ZM25.9885 18.7741C25.9885 17.6744 26.9004 16.7626 28 16.7626C29.0997 16.7626 30.0115 17.6744 30.0115 18.7741V32.1841C30.0115 33.2837 29.0997 34.1956 28 34.1956C26.9004 34.1956 25.9885 33.2837 25.9885 32.1841V18.7741ZM29.9043 42.1344C29.7702 42.2416 29.6361 42.3489 29.502 42.4562C29.341 42.5635 29.1801 42.644 29.0192 42.6976C28.8583 42.778 28.6974 42.8317 28.5096 42.8585C28.3487 42.8853 28.161 42.9122 28 42.9122C27.8391 42.9122 27.6514 42.8853 27.4636 42.8585C27.3027 42.8317 27.1418 42.778 26.9809 42.6976C26.82 42.644 26.659 42.5635 26.4981 42.4562C26.364 42.3489 26.2299 42.2416 26.0958 42.1344C25.6131 41.6248 25.318 40.9275 25.318 40.2301C25.318 39.5328 25.6131 38.8355 26.0958 38.3259L26.4981 38.0041C26.659 37.8968 26.82 37.8163 26.9809 37.7627C27.1418 37.6822 27.3027 37.6286 27.4636 37.6018C27.8123 37.5213 28.1878 37.5213 28.5096 37.6018C28.6974 37.6286 28.8583 37.6822 29.0192 37.7627C29.1801 37.8163 29.341 37.8968 29.502 38.0041L29.9043 38.3259C30.387 38.8355 30.6821 39.5328 30.6821 40.2301C30.6821 40.9275 30.387 41.6248 29.9043 42.1344Z" fill="#FF5631"/>
</g>
</svg>
