<svg width="21" height="21" viewBox="0 0 21 21" fill="none" xmlns="http://www.w3.org/2000/svg">
<path d="M16.2929 4.21204C14.891 2.80104 13.0408 1.92336 11.0612 1.7303C9.08165 1.53724 7.09673 2.04089 5.44868 3.15444C3.80063 4.26798 2.59274 5.92163 2.03323 7.8303C1.47373 9.73896 1.59769 11.783 2.38373 13.6101C2.46565 13.7799 2.49253 13.9711 2.46062 14.1569L1.70877 17.7709C1.67981 17.9094 1.68572 18.053 1.72599 18.1887C1.76625 18.3244 1.83961 18.448 1.93945 18.5484C2.02131 18.6296 2.11876 18.6935 2.22595 18.736C2.33314 18.7786 2.44784 18.7991 2.56314 18.7961H2.73402L6.39072 18.0614C6.57657 18.039 6.76504 18.0655 6.93752 18.1383C8.76458 18.9243 10.8087 19.0483 12.7173 18.4887C14.626 17.9292 16.2796 16.7213 17.3932 15.0733C18.5067 13.4253 19.0104 11.4403 18.8173 9.46075C18.6243 7.48116 17.7466 5.63096 16.3356 4.22912L16.2929 4.21204ZM6.83499 11.1068C6.66601 11.1068 6.50083 11.0567 6.36033 10.9628C6.21983 10.8689 6.11032 10.7355 6.04566 10.5794C5.98099 10.4233 5.96407 10.2515 5.99704 10.0857C6.03 9.92002 6.11137 9.76778 6.23086 9.6483C6.35035 9.52881 6.50258 9.44744 6.66831 9.41447C6.83404 9.38151 7.00583 9.39843 7.16194 9.46309C7.31806 9.52776 7.45149 9.63726 7.54537 9.77776C7.63925 9.91826 7.68936 10.0834 7.68936 10.2524C7.68936 10.479 7.59935 10.6963 7.43912 10.8566C7.2789 11.0168 7.06158 11.1068 6.83499 11.1068ZM10.2525 11.1068C10.0835 11.1068 9.91831 11.0567 9.77781 10.9628C9.63731 10.8689 9.5278 10.7355 9.46313 10.5794C9.39847 10.4233 9.38155 10.2515 9.41452 10.0857C9.44748 9.92002 9.52885 9.76778 9.64834 9.6483C9.76782 9.52881 9.92006 9.44744 10.0858 9.41447C10.2515 9.38151 10.4233 9.39843 10.5794 9.46309C10.7355 9.52776 10.869 9.63726 10.9629 9.77776C11.0567 9.91826 11.1068 10.0834 11.1068 10.2524C11.1068 10.479 11.0168 10.6963 10.8566 10.8566C10.6964 11.0168 10.4791 11.1068 10.2525 11.1068ZM13.6699 11.1068C13.501 11.1068 13.3358 11.0567 13.1953 10.9628C13.0548 10.8689 12.9453 10.7355 12.8806 10.5794C12.8159 10.4233 12.799 10.2515 12.832 10.0857C12.865 9.92002 12.9463 9.76778 13.0658 9.6483C13.1853 9.52881 13.3375 9.44744 13.5033 9.41447C13.669 9.38151 13.8408 9.39843 13.9969 9.46309C14.153 9.52776 14.2864 9.63726 14.3803 9.77776C14.4742 9.91826 14.5243 10.0834 14.5243 10.2524C14.5243 10.479 14.4343 10.6963 14.2741 10.8566C14.1139 11.0168 13.8965 11.1068 13.6699 11.1068Z" fill="#F1DEC9"/>
</svg>
